<?xml version="1.0" encoding="UTF-8"?>
<!DOCTYPE svg PUBLIC "-//W3C//DTD SVG 1.1//EN" "http://www.w3.org/Graphics/SVG/1.1/DTD/svg11.dtd">
<svg xmlns="http://www.w3.org/2000/svg" version="1.1" width="500px" height="500px" style="shape-rendering:geometricPrecision; text-rendering:geometricPrecision; image-rendering:optimizeQuality; fill-rule:evenodd; clip-rule:evenodd" xmlns:xlink="http://www.w3.org/1999/xlink">
<g><path style="opacity:1" fill="#fefefe" d="M -0.5,-0.5 C 166.167,-0.5 332.833,-0.5 499.5,-0.5C 499.5,166.167 499.5,332.833 499.5,499.5C 332.833,499.5 166.167,499.5 -0.5,499.5C -0.5,332.833 -0.5,166.167 -0.5,-0.5 Z"/></g>
<g><path style="opacity:1" fill="#010101" d="M 245.5,58.5 C 247.857,58.3367 250.19,58.5034 252.5,59C 289.442,70.8194 326.442,82.486 363.5,94C 367.559,127.502 367.059,161.002 362,194.5C 352.869,234.606 332.036,267.106 299.5,292C 284.056,303.307 267.223,312.14 249,318.5C 213.489,305.985 184.489,284.652 162,254.5C 146.768,232.147 137.435,207.481 134,180.5C 130.612,151.45 130.778,122.45 134.5,93.5C 171.677,82.0603 208.677,70.3936 245.5,58.5 Z"/></g>
<g><path style="opacity:1" fill="#fdfdfd" d="M 195.5,142.5 C 207.931,142.032 220.264,142.865 232.5,145C 238.703,147.016 244.203,150.183 249,154.5C 249.167,165.333 249.333,176.167 249.5,187C 249.499,198.188 248.832,209.021 247.5,219.5C 243.323,214.571 237.99,211.404 231.5,210C 219.547,208.635 207.547,208.135 195.5,208.5C 195.5,186.5 195.5,164.5 195.5,142.5 Z"/></g>
<g><path style="opacity:1" fill="#fdfdfd" d="M 304.5,142.5 C 304.5,164.5 304.5,186.5 304.5,208.5C 292.124,208.157 279.791,208.657 267.5,210C 261.297,211.388 256.297,214.555 252.5,219.5C 251.168,209.021 250.501,198.188 250.5,187C 250.667,176.167 250.833,165.333 251,154.5C 258.089,147.793 266.589,143.96 276.5,143C 285.827,142.5 295.161,142.334 304.5,142.5 Z"/></g>
<g><path style="opacity:1" fill="#f5f5f5" d="M 193.5,185.5 C 193.5,194.167 193.5,202.833 193.5,211.5C 203.167,211.5 212.833,211.5 222.5,211.5C 231.793,211.376 240.127,214.043 247.5,219.5C 247.833,220.167 248.167,220.833 248.5,221.5C 229.167,222.833 209.833,222.833 190.5,221.5C 189.664,199.511 189.33,177.511 189.5,155.5C 190.183,153.824 191.517,153.157 193.5,153.5C 193.5,164.167 193.5,174.833 193.5,185.5 Z"/></g>
<g><path style="opacity:1" fill="#f6f6f6" d="M 306.5,154.5 C 307.5,154.5 308.5,154.5 309.5,154.5C 310.557,176.827 310.557,199.16 309.5,221.5C 290.167,222.833 270.833,222.833 251.5,221.5C 251.833,220.833 252.167,220.167 252.5,219.5C 256.34,217.189 260.34,215.023 264.5,213C 268.77,211.925 273.103,211.425 277.5,211.5C 287.167,211.5 296.833,211.5 306.5,211.5C 306.5,198.167 306.5,184.833 306.5,171.5C 306.5,165.833 306.5,160.167 306.5,154.5 Z"/></g>
<g><path style="opacity:1" fill="#f9f9f9" d="M 188.5,155.5 C 188.169,178.339 188.503,201.006 189.5,223.5C 207.845,223.167 226.179,223.5 244.5,224.5C 225.512,225.5 206.512,225.833 187.5,225.5C 186.833,214.005 186.5,202.338 186.5,190.5C 186.501,178.48 187.168,166.814 188.5,155.5 Z"/></g>
<g><path style="opacity:1" fill="#fbfbfb" d="M 311.5,155.5 C 312.832,166.814 313.499,178.48 313.5,190.5C 313.5,202.338 313.167,214.005 312.5,225.5C 293.488,225.833 274.488,225.5 255.5,224.5C 273.821,223.5 292.155,223.167 310.5,223.5C 311.497,201.006 311.831,178.339 311.5,155.5 Z"/></g>
<g><path style="opacity:1" fill="#878787" d="M 304.5,142.5 C 305.167,152.167 305.833,161.833 306.5,171.5C 306.5,184.833 306.5,198.167 306.5,211.5C 296.833,211.5 287.167,211.5 277.5,211.5C 286.675,210.833 296.009,210.167 305.5,209.5C 305.376,208.893 305.043,208.56 304.5,208.5C 304.5,186.5 304.5,164.5 304.5,142.5 Z"/></g>
<g><path style="opacity:1" fill="#a4a4a4" d="M 306.5,154.5 C 308.357,153.235 310.024,153.568 311.5,155.5C 311.831,178.339 311.497,201.006 310.5,223.5C 310.672,222.508 310.338,221.842 309.5,221.5C 310.557,199.16 310.557,176.827 309.5,154.5C 308.5,154.5 307.5,154.5 306.5,154.5 Z"/></g>
<g><path style="opacity:1" fill="#adadad" d="M 188.5,155.5 C 188.833,155.5 189.167,155.5 189.5,155.5C 189.33,177.511 189.664,199.511 190.5,221.5C 189.662,221.842 189.328,222.508 189.5,223.5C 188.503,201.006 188.169,178.339 188.5,155.5 Z"/></g>
<g><path style="opacity:1" fill="#8d8d8d" d="M 195.5,142.5 C 195.5,164.5 195.5,186.5 195.5,208.5C 194.957,208.56 194.624,208.893 194.5,209.5C 203.991,210.167 213.325,210.833 222.5,211.5C 212.833,211.5 203.167,211.5 193.5,211.5C 193.5,202.833 193.5,194.167 193.5,185.5C 194.167,171.167 194.833,156.833 195.5,142.5 Z"/></g>
<g><path style="opacity:1" fill="#0c0c0c" d="M 87.5,207.5 C 96.9078,211.004 101.241,217.671 100.5,227.5C 91.1756,224.206 86.8423,217.539 87.5,207.5 Z"/></g>
<g><path style="opacity:1" fill="#0d0d0d" d="M 122.5,207.5 C 124.643,216.874 121.143,223.541 112,227.5C 110.511,218.143 114.011,211.477 122.5,207.5 Z"/></g>
<g><path style="opacity:1" fill="#0d0d0d" d="M 374.5,207.5 C 383.773,211.047 387.607,217.714 386,227.5C 377.789,223.418 373.956,216.751 374.5,207.5 Z"/></g>
<g><path style="opacity:1" fill="#0d0d0d" d="M 409.5,207.5 C 411.922,217.906 407.588,224.572 396.5,227.5C 396.84,218.173 401.173,211.507 409.5,207.5 Z"/></g>
<g><path style="opacity:1" fill="#131313" d="M 195.5,208.5 C 207.547,208.135 219.547,208.635 231.5,210C 237.99,211.404 243.323,214.571 247.5,219.5C 240.127,214.043 231.793,211.376 222.5,211.5C 213.325,210.833 203.991,210.167 194.5,209.5C 194.624,208.893 194.957,208.56 195.5,208.5 Z"/></g>
<g><path style="opacity:1" fill="#131313" d="M 304.5,208.5 C 305.043,208.56 305.376,208.893 305.5,209.5C 296.009,210.167 286.675,210.833 277.5,211.5C 273.103,211.425 268.77,211.925 264.5,213C 260.34,215.023 256.34,217.189 252.5,219.5C 256.297,214.555 261.297,211.388 267.5,210C 279.791,208.657 292.124,208.157 304.5,208.5 Z"/></g>
<g><path style="opacity:1" fill="#0f0f0f" d="M 89.5,234.5 C 90.6009,233.402 91.9343,233.235 93.5,234C 101.131,237.607 105.631,243.44 107,251.5C 103.063,249.856 99.2299,248.023 95.5,246C 92.8224,242.426 90.8224,238.593 89.5,234.5 Z"/></g>
<g><path style="opacity:1" fill="#0e0e0e" d="M 405.5,233.5 C 406.675,233.281 407.675,233.614 408.5,234.5C 406.702,243.965 401.036,249.298 391.5,250.5C 393.237,242.429 397.904,236.762 405.5,233.5 Z"/></g>
<g><path style="opacity:1" fill="#0d0d0d" d="M 95.5,258.5 C 104.809,258.185 111.475,262.519 115.5,271.5C 105.198,272.879 98.5313,268.545 95.5,258.5 Z"/></g>
<g><path style="opacity:1" fill="#0a0a0a" d="M 397.5,257.5 C 399.288,257.215 400.955,257.548 402.5,258.5C 399.427,268.417 392.76,272.917 382.5,272C 386.075,265.59 391.075,260.757 397.5,257.5 Z"/></g>
<g><path style="opacity:1" fill="#787878" d="M 388.5,280.5 C 390.035,279.212 391.701,279.212 393.5,280.5C 393.376,281.107 393.043,281.44 392.5,281.5C 391.432,280.566 390.099,280.232 388.5,280.5 Z"/></g>
<g><path style="opacity:1" fill="#0e0e0e" d="M 105.5,280.5 C 115.202,279.851 122.535,283.684 127.5,292C 117.018,293.988 109.685,290.155 105.5,280.5 Z"/></g>
<g><path style="opacity:1" fill="#0d0d0d" d="M 388.5,280.5 C 390.099,280.232 391.432,280.566 392.5,281.5C 387.94,290.612 380.607,294.112 370.5,292C 372.833,288.333 375.833,285.333 379.5,283C 382.206,281.092 385.206,280.259 388.5,280.5 Z"/></g>
<g><path style="opacity:1" fill="#0d0d0d" d="M 121.5,301.5 C 130.07,300.522 137.07,303.355 142.5,310C 132.718,313.742 124.718,311.409 118.5,303C 119.737,302.768 120.737,302.268 121.5,301.5 Z"/></g>
<g><path style="opacity:1" fill="#0c0c0c" d="M 366.5,301.5 C 370.915,301.305 375.249,301.805 379.5,303C 373.282,311.409 365.282,313.742 355.5,310C 359.067,306.92 362.733,304.087 366.5,301.5 Z"/></g>
<g><path style="opacity:1" fill="#080808" d="M 141.5,318.5 C 148.797,317.707 154.797,320.04 159.5,325.5C 150.409,330.491 142.409,329.158 135.5,321.5C 137.444,320.199 139.444,319.199 141.5,318.5 Z"/></g>
<g><path style="opacity:1" fill="#0c0c0c" d="M 347.5,318.5 C 353.133,318.05 358.466,319.05 363.5,321.5C 356.106,329.07 347.773,330.403 338.5,325.5C 341.233,322.761 344.233,320.427 347.5,318.5 Z"/></g>
<g><path style="opacity:1" fill="#1c1c1c" d="M 104.5,209.5 C 105.931,209.881 106.764,210.881 107,212.5C 112.333,273.358 142.833,316.192 198.5,341C 273.633,363.184 332.133,341.35 374,275.5C 384.029,256.055 389.695,235.388 391,213.5C 391.219,212.062 391.719,210.729 392.5,209.5C 390.922,262.155 367.922,302.655 323.5,331C 300.287,345.306 274.954,352.473 247.5,352.5C 186.299,348.328 142.465,318.661 116,263.5C 109.7,246.038 105.867,228.038 104.5,209.5 Z"/></g>
<g><path style="opacity:1" fill="#0d0d0d" d="M 266.5,331.5 C 267.586,331.62 268.253,332.287 268.5,333.5C 266.633,342.409 261.3,346.409 252.5,345.5C 254.945,338.388 259.611,333.721 266.5,331.5 Z"/></g>
<g><path style="opacity:1" fill="#0e0e0e" d="M 229.5,331.5 C 238.399,332.734 243.733,337.734 245.5,346.5C 235.655,346.322 230.322,341.322 229.5,331.5 Z"/></g>
<g><path style="opacity:1" fill="#0e0e0e" d="M 285.5,327.5 C 287.871,332.607 286.538,337.107 281.5,341C 279.35,342.411 277.016,343.245 274.5,343.5C 274.716,335.719 278.383,330.386 285.5,327.5 Z"/></g>
<g><path style="opacity:1" fill="#0e0e0e" d="M 210.5,327.5 C 219.277,329.273 223.61,334.606 223.5,343.5C 214.937,341.75 210.604,336.416 210.5,327.5 Z"/></g>
<g><path style="opacity:1" fill="#0e0e0e" d="M 191.5,319.5 C 200.613,322.73 204.279,329.063 202.5,338.5C 194.432,334.695 190.765,328.361 191.5,319.5 Z"/></g>
<g><path style="opacity:1" fill="#0c0c0c" d="M 304.5,319.5 C 305.748,320.334 306.415,321.667 306.5,323.5C 305.598,330.419 301.931,335.419 295.5,338.5C 294.34,330.292 297.34,323.959 304.5,319.5 Z"/></g>
<g><path style="opacity:1" fill="#121212" d="M 321.5,308.5 C 325.654,317.186 323.487,324.186 315,329.5C 314.333,325.5 314.333,321.5 315,317.5C 317.176,314.471 319.343,311.471 321.5,308.5 Z"/></g>
<g><path style="opacity:1" fill="#121212" d="M 175.5,308.5 C 183.258,313.716 185.758,320.716 183,329.5C 175.447,324.281 172.947,317.281 175.5,308.5 Z"/></g>
<g><path style="opacity:1" fill="#0b0b0b" d="M 336.5,296.5 C 341.372,304.39 340.206,311.39 333,317.5C 330.236,309.751 331.403,302.751 336.5,296.5 Z"/></g>
<g><path style="opacity:1" fill="#101010" d="M 160.5,296.5 C 167.48,302.283 168.98,309.283 165,317.5C 158.227,311.674 156.727,304.674 160.5,296.5 Z"/></g>
<g><path style="opacity:1" fill="#0d0d0d" d="M 349.5,280.5 C 356.331,287.893 356.164,295.227 349,302.5C 346.746,299.572 345.579,296.238 345.5,292.5C 346.245,288.265 347.578,284.265 349.5,280.5 Z"/></g>
<g><path style="opacity:1" fill="#0b0b0b" d="M 147.5,281.5 C 150.999,284.174 152.665,287.84 152.5,292.5C 152.746,296.338 151.58,299.672 149,302.5C 143.606,295.883 143.106,288.883 147.5,281.5 Z"/></g>
<g><path style="opacity:1" fill="#0e0e0e" d="M 359.5,265.5 C 361.017,265.511 362.184,266.177 363,267.5C 367.494,273.763 367.661,280.096 363.5,286.5C 357.21,280.564 355.877,273.564 359.5,265.5 Z"/></g>
<g><path style="opacity:1" fill="#101010" d="M 136.5,265.5 C 137.496,265.414 138.329,265.748 139,266.5C 140.457,270.741 140.791,275.074 140,279.5C 135.039,289.121 132.206,288.287 131.5,277C 132.481,272.858 134.147,269.024 136.5,265.5 Z"/></g>
<g><path style="opacity:1" fill="#0c0c0c" d="M 366.5,246.5 C 375.448,251.003 377.948,258.003 374,267.5C 367.122,262.132 364.622,255.132 366.5,246.5 Z"/></g>
<g><path style="opacity:1" fill="#121212" d="M 129.5,246.5 C 133.315,254.611 131.649,261.611 124.5,267.5C 122.579,263.711 122.079,259.711 123,255.5C 124.686,252.117 126.853,249.117 129.5,246.5 Z"/></g>
<g><path style="opacity:1" fill="#080808" d="M 372.5,227.5 C 376.086,229.58 379.253,232.246 382,235.5C 384.352,248.708 381.686,250.375 374,240.5C 372.71,236.27 372.21,231.936 372.5,227.5 Z"/></g>
<g><path style="opacity:1" fill="#0b0b0b" d="M 124.5,227.5 C 127.439,236.302 124.773,242.969 116.5,247.5C 115.341,243.878 115.175,240.211 116,236.5C 118.362,232.973 121.196,229.973 124.5,227.5 Z"/></g>
<g><path style="opacity:1" fill="#b0b0b0" d="M 312.5,226.5 C 313.043,226.56 313.376,226.893 313.5,227.5C 294.004,228.828 274.671,228.828 255.5,227.5C 274.326,226.503 293.326,226.17 312.5,226.5 Z"/></g>
<g><path style="opacity:1" fill="#b0b0b0" d="M 187.5,226.5 C 206.674,226.17 225.674,226.503 244.5,227.5C 225.329,228.828 205.996,228.828 186.5,227.5C 186.624,226.893 186.957,226.56 187.5,226.5 Z"/></g>
<g><path style="opacity:1" fill="#505050" d="M 190.5,221.5 C 209.833,222.833 229.167,222.833 248.5,221.5C 249.5,222.833 250.5,222.833 251.5,221.5C 270.833,222.833 290.167,222.833 309.5,221.5C 310.338,221.842 310.672,222.508 310.5,223.5C 292.155,223.167 273.821,223.5 255.5,224.5C 274.488,225.5 293.488,225.833 312.5,225.5C 312.5,225.833 312.5,226.167 312.5,226.5C 293.326,226.17 274.326,226.503 255.5,227.5C 255.167,227.5 254.833,227.5 254.5,227.5C 254.5,226.167 254.5,224.833 254.5,223.5C 251.5,223.5 248.5,223.5 245.5,223.5C 245.5,224.833 245.5,226.167 245.5,227.5C 245.167,227.5 244.833,227.5 244.5,227.5C 225.674,226.503 206.674,226.17 187.5,226.5C 187.5,226.167 187.5,225.833 187.5,225.5C 206.512,225.833 225.512,225.5 244.5,224.5C 226.179,223.5 207.845,223.167 189.5,223.5C 189.328,222.508 189.662,221.842 190.5,221.5 Z"/></g>
<g><path style="opacity:1" fill="#f6f6f6" d="M 254.5,227.5 C 251.5,232.833 248.5,232.833 245.5,227.5C 245.5,226.167 245.5,224.833 245.5,223.5C 248.5,223.5 251.5,223.5 254.5,223.5C 254.5,224.833 254.5,226.167 254.5,227.5 Z"/></g>
<g><path style="opacity:1" fill="#0d0d0d" d="M 160.5,333.5 C 167.43,332.655 173.763,334.155 179.5,338C 170.989,345.138 162.322,345.305 153.5,338.5C 155.724,336.566 158.058,334.899 160.5,333.5 Z"/></g>
<g><path style="opacity:1" fill="#0d0d0d" d="M 326.5,333.5 C 333.367,332.437 339.367,334.104 344.5,338.5C 335.678,345.305 327.011,345.138 318.5,338C 321.191,336.395 323.858,334.895 326.5,333.5 Z"/></g>
<g><path style="opacity:1" fill="#0e0e0e" d="M 184.5,345.5 C 188.514,345.334 192.514,345.501 196.5,346C 197.624,346.249 198.624,346.749 199.5,347.5C 192.316,354.914 183.983,356.414 174.5,352C 177.491,349.152 180.824,346.985 184.5,345.5 Z"/></g>
<g><path style="opacity:1" fill="#0d0d0d" d="M 300.5,345.5 C 309.141,344.075 316.808,346.075 323.5,351.5C 314.142,356.497 305.809,355.163 298.5,347.5C 299.243,346.818 299.909,346.151 300.5,345.5 Z"/></g>
<g><path style="opacity:1" fill="#0c0c0c" d="M 209.5,352.5 C 225.913,352.016 226.247,355.183 210.5,362C 205.98,362.928 201.646,362.595 197.5,361C 201.125,357.526 205.125,354.693 209.5,352.5 Z"/></g>
<g><path style="opacity:1" fill="#0f0f0f" d="M 275.5,352.5 C 285.577,351.248 294.243,354.081 301.5,361C 290.306,365.21 281.639,362.377 275.5,352.5 Z"/></g>
<g><path style="opacity:1" fill="#0a0a0a" d="M 230.5,367.5 C 227.615,367.806 224.948,367.473 222.5,366.5C 227.88,357.98 235.546,354.814 245.5,357C 241.882,362.476 236.882,365.976 230.5,367.5 Z"/></g>
<g><path style="opacity:1" fill="#080808" d="M 252.5,357.5 C 262.67,354.887 270.67,358.054 276.5,367C 272.5,367.667 268.5,367.667 264.5,367C 260.05,364.381 256.05,361.214 252.5,357.5 Z"/></g>
<g><path style="opacity:1" fill="#858585" d="M 222.5,366.5 C 224.948,367.473 227.615,367.806 230.5,367.5C 227.645,368.803 224.645,368.803 221.5,367.5C 221.624,366.893 221.957,366.56 222.5,366.5 Z"/></g>
<g><path style="opacity:1" fill="#080808" d="M 268.5,381.5 C 269.167,386.5 269.833,391.5 270.5,396.5C 270.719,397.675 270.386,398.675 269.5,399.5C 266.804,393.639 263.138,388.472 258.5,384C 250.746,379.624 244.913,381.457 241,389.5C 238.06,402.073 237.726,414.74 240,427.5C 242.443,437.993 248.609,441.493 258.5,438C 263.454,433.252 267.287,427.752 270,421.5C 270.667,427.833 270.667,434.167 270,440.5C 269.261,439.426 268.261,438.759 267,438.5C 234.316,447.35 219.316,435.017 222,401.5C 228.395,383.88 240.895,377.047 259.5,381C 262.56,382.663 265.56,382.83 268.5,381.5 Z"/></g>
<g><path style="opacity:1" fill="#7a7a7a" d="M 322.5,381.5 C 307.657,381.171 292.99,381.504 278.5,382.5C 277.957,382.44 277.624,382.107 277.5,381.5C 292.661,380.174 307.661,380.174 322.5,381.5 Z"/></g>
<g><path style="opacity:1" fill="#080808" d="M 193.5,439.5 C 195.5,439.5 197.5,439.5 199.5,439.5C 199.737,438.209 199.404,437.209 198.5,436.5C 197.297,431.357 195.63,426.357 193.5,421.5C 187.863,420.337 182.196,420.17 176.5,421C 173.598,426.874 171.598,433.041 170.5,439.5C 171.752,440.854 170.752,440.854 167.5,439.5C 174.313,420.532 181.146,401.532 188,382.5C 190.456,380.679 193.289,380.012 196.5,380.5C 203.224,399.836 210.057,419.169 217,438.5C 218.399,439.227 219.899,439.727 221.5,440C 211.991,440.824 202.657,440.658 193.5,439.5 Z"/></g>
<g><path style="opacity:1" fill="#050505" d="M 278.5,382.5 C 292.99,381.504 307.657,381.171 322.5,381.5C 322.666,386.844 322.499,392.177 322,397.5C 320.318,393.148 317.818,389.314 314.5,386C 312.091,384.293 309.425,383.46 306.5,383.5C 304.393,382.532 302.059,382.198 299.5,382.5C 299.5,391.5 299.5,400.5 299.5,409.5C 301.415,409.784 303.081,409.451 304.5,408.5C 306.903,408.607 308.736,407.607 310,405.5C 311.171,403.158 312.338,400.824 313.5,398.5C 314.833,406.833 314.833,415.167 313.5,423.5C 312.135,415.458 307.468,411.458 299.5,411.5C 299.5,420.5 299.5,429.5 299.5,438.5C 311.846,439.491 320.179,434.158 324.5,422.5C 325.496,428.463 325.829,434.463 325.5,440.5C 309.819,440.833 294.152,440.499 278.5,439.5C 279.689,438.571 281.022,438.238 282.5,438.5C 283.497,420.007 283.83,401.341 283.5,382.5C 281.833,382.5 280.167,382.5 278.5,382.5 Z"/></g>
<g><path style="opacity:1" fill="#b5b5b5" d="M 306.5,383.5 C 304.5,383.5 302.5,383.5 300.5,383.5C 300.5,391.833 300.5,400.167 300.5,408.5C 301.833,408.5 303.167,408.5 304.5,408.5C 303.081,409.451 301.415,409.784 299.5,409.5C 299.5,400.5 299.5,391.5 299.5,382.5C 302.059,382.198 304.393,382.532 306.5,383.5 Z"/></g>
<g><path style="opacity:1" fill="#bababa" d="M 278.5,382.5 C 280.167,382.5 281.833,382.5 283.5,382.5C 283.83,401.341 283.497,420.007 282.5,438.5C 282.5,420.167 282.5,401.833 282.5,383.5C 280.901,383.768 279.568,383.434 278.5,382.5 Z"/></g>
<g><path style="opacity:1" fill="#606060" d="M 268.5,381.5 C 268.56,380.957 268.893,380.624 269.5,380.5C 270.495,385.792 270.828,391.125 270.5,396.5C 269.833,391.5 269.167,386.5 268.5,381.5 Z"/></g>
<g><path style="opacity:1" fill="#f6f6f6" d="M 184.5,397.5 C 185.117,397.611 185.617,397.944 186,398.5C 188.068,404.871 190.235,411.204 192.5,417.5C 187.5,418.833 182.5,418.833 177.5,417.5C 179.847,410.812 182.181,404.146 184.5,397.5 Z"/></g>
<g><path style="opacity:1" fill="#8e8e8e" d="M 198.5,436.5 C 199.404,437.209 199.737,438.209 199.5,439.5C 197.5,439.5 195.5,439.5 193.5,439.5C 195.531,439.028 197.198,438.028 198.5,436.5 Z"/></g>
</svg>
